# xmcd
#
# Track frame offsets: 
#        150
#        13464
#        25591
#        41735
#        55015
#        65017
#        82654
#        93363
#        109133
#        120130
#        132959
#        144481
#
# Disc length: 2119 seconds
#
# Revision: 1
# Processed by: cddbd v1.5.2PL0 Copyright (c) Steve Scherf et al.
# Submitted via: ExactAudioCopyFreeDBPlugin 1.0
#
DISCID=9508450c
DTITLE=Booker T. and the M.G.'s - Green Onions
DYEAR=1962
DGENRE=Soul
TTITLE0=Green Onions
TTITLE1=Rinky-Dink
TTITLE2=I Got a Woman
TTITLE3=Mo' Onions
TTITLE4=Twist and Shout
TTITLE5=Behave Yourself
TTITLE6=Stranger on the Shore
TTITLE7=Lonely Avenue
TTITLE8=One Who Really Loves You
TTITLE9=You Can't Sit Down
TTITLE10=A Woman, a Lover, a Friend
TTITLE11=Comin' Home Baby
EXTD=
EXTT0=
EXTT1=
EXTT2=
EXTT3=
EXTT4=
EXTT5=
EXTT6=
EXTT7=
EXTT8=
EXTT9=
EXTT10=
EXTT11=
PLAYORDER=
